<svg width="512" height="512" viewBox="0 0 512 512" fill="none" xmlns="http://www.w3.org/2000/svg">
<path d="M264 164.177C264 154.964 254.046 149.187 246.046 153.759L214.046 172.044C210.307 174.181 208 178.157 208 182.463V386.821C208 396.035 217.954 401.811 225.954 397.24L257.954 378.954C261.693 376.818 264 372.842 264 368.535V164.177Z" fill="#007FFF"/>
<path d="M304 236.177C304 226.964 313.954 221.187 321.954 225.759L465.954 308.044C469.693 310.181 472 314.157 472 318.463V354.821C472 364.035 462.046 369.811 454.046 365.24L310.046 282.954C306.307 280.818 304 276.842 304 272.535V236.177Z" fill="#007FFF"/>
<path d="M472 236.177C472 226.964 462.046 221.187 454.046 225.759L310.046 308.044C306.307 310.181 304 314.157 304 318.463V354.821C304 364.035 313.954 369.811 321.954 365.24L465.954 282.954C469.693 280.818 472 276.842 472 272.535V236.177Z" fill="#007FFF"/>
<path fill-rule="evenodd" clip-rule="evenodd" d="M113.883 305.059C105.884 300.559 96 306.34 96 315.517V386.821C96 396.035 86.0462 401.811 78.0463 397.24L46.0463 378.954C42.3074 376.818 40 372.842 40 368.535V263.499V199.499V167.499V124.017C40 114.84 49.8839 109.059 57.8832 113.559L161.883 172.059C165.662 174.184 168 178.182 168 182.517V218.981C168 228.159 158.116 233.94 150.117 229.44L113.883 209.059C105.884 204.559 96 210.34 96 219.517V223.981C96 228.316 98.3383 232.315 102.117 234.44L161.883 268.059C165.662 270.184 168 274.182 168 278.517V314.981C168 324.159 158.116 329.94 150.117 325.44L113.883 305.059Z" fill="#007FFF"/>
<path d="M369.24 213.648C366.793 218.948 370.665 225 376.503 225H399.497C405.335 225 409.207 218.948 406.76 213.648L395.264 188.738C392.404 182.541 383.596 182.541 380.736 188.738L369.24 213.648Z" fill="#007FFF"/>
<path d="M381.352 360.746C376.052 358.299 370 362.171 370 368.009L370 391.003C370 396.841 376.052 400.713 381.352 398.267L406.262 386.77C412.459 383.91 412.459 375.102 406.262 372.242L381.352 360.746Z" fill="#007FFF"/>
</svg>
